<svg preserveAspectRatio="none" width="100%" height="100%" overflow="visible" style="display: block;" viewBox="0 0 252 60" fill="none" xmlns="http://www.w3.org/2000/svg">
<g id="Konvo Logo">
<path id="Vector" d="M48.6417 18.8138V18.7092C48.6417 8.37882 56.9096 0 67.9274 0C78.9452 0 87.1093 8.27414 87.1093 18.6107V18.7154C87.1093 29.0457 78.8413 37.4246 67.8235 37.4246C56.8057 37.4246 48.6417 29.1504 48.6417 18.8138ZM77.0142 18.8138V18.7092C77.0142 13.5194 73.2866 8.99444 67.8297 8.99444C62.3727 8.99444 58.7979 13.4147 58.7979 18.6045V18.7092C58.7979 23.899 62.5255 28.4239 67.9335 28.4239C73.3416 28.4239 77.0142 24.0037 77.0142 18.8138Z" fill="var(--fill-0, white)"/>
<path id="Vector_2" d="M107.574 0.720413H116.808L131.504 19.7374V0.720413H141.3V36.7044H132.629L117.37 16.9671V36.7044H107.574V0.720413Z" fill="var(--fill-0, white)"/>
<path id="Vector_3" d="M160.072 0.720413H171.145L179.26 23.4928L187.376 0.720413H198.241L183.752 36.9568H174.567L160.079 0.720413H160.072Z" fill="var(--fill-0, white)"/>
<path id="Vector_4" d="M213.487 18.8138V18.7092C213.487 8.37882 221.755 0 232.773 0C243.791 0 251.955 8.27414 251.955 18.6107V18.7154C251.955 29.0457 243.687 37.4246 232.669 37.4246C221.651 37.4246 213.487 29.1504 213.487 18.8138ZM241.86 18.8138V18.7092C241.86 13.5194 238.138 8.99444 232.675 8.99444C227.212 8.99444 223.643 13.4147 223.643 18.6045V18.7092C223.643 23.899 227.365 28.4239 232.779 28.4239C238.193 28.4239 241.86 24.0037 241.86 18.8138Z" fill="var(--fill-0, white)"/>
<path id="Vector_5" d="M89.4925 57.9746C89.2909 58.4055 89.0037 58.7687 88.637 59.0642C88.2704 59.3597 87.8304 59.5814 87.3232 59.7353C86.816 59.8892 86.2538 59.9692 85.6305 59.9692C84.7628 59.9692 83.9073 59.8215 83.0762 59.5321C82.2451 59.2428 81.4813 58.7872 80.7969 58.1777L82.2757 56.4355C82.7951 56.8541 83.3328 57.1804 83.8767 57.4267C84.4267 57.6729 85.0255 57.796 85.6733 57.796C86.1927 57.796 86.596 57.7037 86.8832 57.5128C87.1704 57.3281 87.3171 57.0696 87.3171 56.7372V56.7063C87.3171 56.5463 87.2865 56.4047 87.2254 56.2816C87.1643 56.1584 87.0482 56.0415 86.8832 55.9368C86.7121 55.8321 86.4799 55.7214 86.1805 55.6167C85.8811 55.512 85.49 55.3951 85.0133 55.2781C84.4389 55.1365 83.9134 54.9826 83.449 54.8164C82.9845 54.6502 82.5812 54.4347 82.2573 54.1823C81.9335 53.9298 81.6768 53.622 81.4996 53.2465C81.3224 52.8709 81.2307 52.4092 81.2307 51.8551V51.8244C81.2307 51.3134 81.3285 50.8517 81.524 50.4392C81.7196 50.0267 81.9885 49.6758 82.3429 49.3741C82.6912 49.0786 83.1129 48.8447 83.5956 48.6846C84.0845 48.5246 84.6161 48.4445 85.2028 48.4445C86.0399 48.4445 86.8038 48.5677 87.5065 48.8139C88.2093 49.0602 88.8509 49.4111 89.4375 49.8728L88.1359 51.732C87.6287 51.3934 87.1277 51.1226 86.6388 50.9256C86.1499 50.7285 85.6611 50.63 85.1722 50.63C84.6833 50.63 84.3167 50.7224 84.0723 50.9132C83.8278 51.0979 83.7056 51.3319 83.7056 51.6089V51.6397C83.7056 51.8182 83.7423 51.9783 83.8095 52.1137C83.8767 52.2492 84.005 52.3661 84.1945 52.4708C84.3778 52.5754 84.6344 52.6801 84.9522 52.7725C85.2761 52.871 85.6794 52.9818 86.1683 53.1111C86.7427 53.2588 87.2621 53.4312 87.7082 53.6159C88.1604 53.8006 88.5393 54.0283 88.8509 54.2869C89.1626 54.5455 89.3948 54.8533 89.5537 55.2104C89.7125 55.5613 89.792 55.986 89.792 56.4724V56.5032C89.792 57.0573 89.6881 57.5498 89.4864 57.9869L89.4925 57.9746Z" fill="var(--fill-0, white)"/>
<path id="Vector_6" d="M107.251 59.809V55.3087H102.625V59.809H100.119V48.6045H102.625V53.0371H107.251V48.6045H109.756V59.809H107.251Z" fill="var(--fill-0, white)"/>
<path id="Vector_7" d="M131.785 56.4539C131.48 57.1496 131.058 57.7652 130.527 58.2947C129.989 58.8241 129.347 59.2366 128.608 59.5444C127.868 59.8523 127.056 60 126.176 60C125.296 60 124.489 59.8461 123.75 59.5444C123.01 59.2428 122.375 58.8303 121.837 58.3132C121.299 57.796 120.884 57.1865 120.584 56.4909C120.285 55.789 120.138 55.0441 120.138 54.2438V54.213C120.138 53.4127 120.291 52.6616 120.597 51.966C120.902 51.2703 121.324 50.6546 121.855 50.1252C122.393 49.5957 123.035 49.1833 123.774 48.8755C124.52 48.5738 125.326 48.4199 126.206 48.4199C127.086 48.4199 127.893 48.5738 128.632 48.8755C129.372 49.1771 130.007 49.5896 130.545 50.1067C131.083 50.6239 131.498 51.2334 131.798 51.929C132.097 52.6309 132.244 53.3757 132.244 54.1761V54.2068C132.244 55.0072 132.091 55.7583 131.785 56.4539ZM129.622 54.2068C129.622 53.7267 129.537 53.2711 129.372 52.8463C129.207 52.4215 128.962 52.046 128.657 51.7259C128.345 51.4057 127.978 51.1533 127.557 50.9625C127.135 50.7778 126.671 50.6854 126.176 50.6854C125.681 50.6854 125.204 50.7778 124.782 50.9563C124.367 51.1348 124.006 51.3872 123.707 51.7074C123.408 52.0275 123.175 52.3969 123.004 52.8217C122.833 53.2465 122.754 53.6959 122.754 54.1761V54.2068C122.754 54.687 122.839 55.1426 123.004 55.5674C123.169 55.9922 123.414 56.3678 123.719 56.6879C124.031 57.008 124.391 57.2604 124.813 57.4451C125.229 57.6298 125.693 57.7283 126.206 57.7283C126.72 57.7283 127.166 57.636 127.587 57.4574C128.009 57.2789 128.37 57.0265 128.669 56.7063C128.968 56.3862 129.201 56.0168 129.366 55.592C129.531 55.1672 129.616 54.7179 129.616 54.2377V54.2068H129.622Z" fill="var(--fill-0, white)"/>
<path id="Vector_8" d="M142.614 59.809V48.6045H151.194V50.7961H145.089V53.0678H150.46V55.2595H145.089V57.6112H151.273V59.8029H142.614V59.809Z" fill="var(--fill-0, white)"/>
<path id="Vector_9" d="M169.593 57.9746C169.385 58.4055 169.104 58.7687 168.738 59.0642C168.371 59.3597 167.931 59.5814 167.424 59.7353C166.917 59.8892 166.354 59.9692 165.731 59.9692C164.863 59.9692 164.014 59.8215 163.177 59.5321C162.34 59.2366 161.582 58.7872 160.898 58.1777L162.376 56.4355C162.896 56.8541 163.433 57.1804 163.977 57.4267C164.527 57.6729 165.126 57.796 165.774 57.796C166.293 57.796 166.697 57.7037 166.99 57.5128C167.277 57.3281 167.424 57.0696 167.424 56.7372V56.7063C167.424 56.5463 167.393 56.4047 167.332 56.2816C167.271 56.1584 167.155 56.0415 166.99 55.9368C166.819 55.8321 166.587 55.7214 166.287 55.6167C165.988 55.512 165.597 55.3951 165.12 55.2781C164.546 55.1365 164.02 54.9826 163.55 54.8164C163.079 54.644 162.682 54.4347 162.358 54.1823C162.028 53.9298 161.777 53.622 161.6 53.2465C161.423 52.8709 161.331 52.4092 161.331 51.8551V51.8244C161.331 51.3134 161.429 50.8517 161.625 50.4392C161.82 50.0267 162.089 49.6758 162.444 49.3741C162.792 49.0786 163.214 48.8447 163.696 48.6846C164.185 48.5246 164.717 48.4445 165.303 48.4445C166.141 48.4445 166.904 48.5677 167.607 48.8139C168.31 49.0602 168.952 49.4111 169.538 49.8728L168.237 51.732C167.729 51.3934 167.228 51.1226 166.739 50.9256C166.251 50.7285 165.762 50.63 165.273 50.63C164.784 50.63 164.417 50.7224 164.173 50.9132C163.928 51.0979 163.806 51.3319 163.806 51.6089V51.6397C163.806 51.8182 163.843 51.9783 163.91 52.1137C163.977 52.2492 164.112 52.3661 164.295 52.4708C164.478 52.5754 164.735 52.6801 165.053 52.7725C165.377 52.871 165.78 52.9818 166.269 53.1111C166.843 53.2588 167.363 53.4312 167.809 53.6159C168.261 53.8006 168.64 54.0283 168.952 54.2869C169.263 54.5455 169.495 54.8533 169.654 55.2104C169.813 55.5613 169.893 55.986 169.893 56.4724V56.5032C169.893 57.0573 169.789 57.5498 169.587 57.9869L169.593 57.9746Z" fill="var(--fill-0, white)"/>
<path id="Vector_10" d="M0 0.640297V36.7042L32.6256 0.640297H21.2901L9.91783 13.1439V0.640297H0Z" fill="var(--fill-0, white)"/>
<path id="Vector_11" d="M22.5486 36.7044L15.1484 25.6906L21.8703 18.2353L34.4647 36.7044H22.5486Z" fill="var(--fill-0, white)"/>
<path id="Vector_12" d="M48.6417 18.8138V18.7092C48.6417 8.37882 56.9096 0 67.9274 0C78.9452 0 87.1093 8.27414 87.1093 18.6107V18.7154C87.1093 29.0457 78.8413 37.4246 67.8235 37.4246C56.8057 37.4246 48.6417 29.1504 48.6417 18.8138ZM77.0142 18.8138V18.7092C77.0142 13.5194 73.2866 8.99444 67.8297 8.99444C62.3727 8.99444 58.7979 13.4147 58.7979 18.6045V18.7092C58.7979 23.899 62.5255 28.4239 67.9335 28.4239C73.3416 28.4239 77.0142 24.0037 77.0142 18.8138Z" fill="var(--fill-0, white)"/>
<path id="Vector_13" d="M107.574 0.720413H116.808L131.504 19.7374V0.720413H141.3V36.7044H132.629L117.37 16.9671V36.7044H107.574V0.720413Z" fill="var(--fill-0, white)"/>
<path id="Vector_14" d="M160.072 0.720413H171.145L179.26 23.4928L187.376 0.720413H198.241L183.752 36.9568H174.567L160.079 0.720413H160.072Z" fill="var(--fill-0, white)"/>
<path id="Vector_15" d="M213.487 18.8138V18.7092C213.487 8.37882 221.755 0 232.773 0C243.791 0 251.955 8.27414 251.955 18.6107V18.7154C251.955 29.0457 243.687 37.4246 232.669 37.4246C221.651 37.4246 213.487 29.1504 213.487 18.8138ZM241.86 18.8138V18.7092C241.86 13.5194 238.138 8.99444 232.675 8.99444C227.212 8.99444 223.643 13.4147 223.643 18.6045V18.7092C223.643 23.899 227.365 28.4239 232.779 28.4239C238.193 28.4239 241.86 24.0037 241.86 18.8138Z" fill="var(--fill-0, white)"/>
<path id="Vector_16" d="M89.4925 57.9746C89.2909 58.4055 89.0037 58.7687 88.637 59.0642C88.2704 59.3597 87.8304 59.5814 87.3232 59.7353C86.816 59.8892 86.2538 59.9692 85.6305 59.9692C84.7628 59.9692 83.9073 59.8215 83.0762 59.5321C82.2451 59.2428 81.4813 58.7872 80.7969 58.1777L82.2757 56.4355C82.7951 56.8541 83.3328 57.1804 83.8767 57.4267C84.4267 57.6729 85.0255 57.796 85.6733 57.796C86.1927 57.796 86.596 57.7037 86.8832 57.5128C87.1704 57.3281 87.3171 57.0696 87.3171 56.7372V56.7063C87.3171 56.5463 87.2865 56.4047 87.2254 56.2816C87.1643 56.1584 87.0482 56.0415 86.8832 55.9368C86.7121 55.8321 86.4799 55.7214 86.1805 55.6167C85.8811 55.512 85.49 55.3951 85.0133 55.2781C84.4389 55.1365 83.9134 54.9826 83.449 54.8164C82.9845 54.6502 82.5812 54.4347 82.2573 54.1823C81.9335 53.9298 81.6768 53.622 81.4996 53.2465C81.3224 52.8709 81.2307 52.4092 81.2307 51.8551V51.8244C81.2307 51.3134 81.3285 50.8517 81.524 50.4392C81.7196 50.0267 81.9885 49.6758 82.3429 49.3741C82.6912 49.0786 83.1129 48.8447 83.5956 48.6846C84.0845 48.5246 84.6161 48.4445 85.2028 48.4445C86.0399 48.4445 86.8038 48.5677 87.5065 48.8139C88.2093 49.0602 88.8509 49.4111 89.4375 49.8728L88.1359 51.732C87.6287 51.3934 87.1277 51.1226 86.6388 50.9256C86.1499 50.7285 85.6611 50.63 85.1722 50.63C84.6833 50.63 84.3167 50.7224 84.0723 50.9132C83.8278 51.0979 83.7056 51.3319 83.7056 51.6089V51.6397C83.7056 51.8182 83.7423 51.9783 83.8095 52.1137C83.8767 52.2492 84.005 52.3661 84.1945 52.4708C84.3778 52.5754 84.6344 52.6801 84.9522 52.7725C85.2761 52.871 85.6794 52.9818 86.1683 53.1111C86.7427 53.2588 87.2621 53.4312 87.7082 53.6159C88.1604 53.8006 88.5393 54.0283 88.8509 54.2869C89.1626 54.5455 89.3948 54.8533 89.5537 55.2104C89.7125 55.5613 89.792 55.986 89.792 56.4724V56.5032C89.792 57.0573 89.6881 57.5498 89.4864 57.9869L89.4925 57.9746Z" fill="var(--fill-0, white)"/>
<path id="Vector_17" d="M107.251 59.809V55.3087H102.625V59.809H100.119V48.6045H102.625V53.0371H107.251V48.6045H109.756V59.809H107.251Z" fill="var(--fill-0, white)"/>
<path id="Vector_18" d="M131.785 56.4539C131.48 57.1496 131.058 57.7652 130.527 58.2947C129.989 58.8241 129.347 59.2366 128.608 59.5444C127.868 59.8523 127.056 60 126.176 60C125.296 60 124.489 59.8461 123.75 59.5444C123.01 59.2428 122.375 58.8303 121.837 58.3132C121.299 57.796 120.884 57.1865 120.584 56.4909C120.285 55.789 120.138 55.0441 120.138 54.2438V54.213C120.138 53.4127 120.291 52.6616 120.597 51.966C120.902 51.2703 121.324 50.6546 121.855 50.1252C122.393 49.5957 123.035 49.1833 123.774 48.8755C124.52 48.5738 125.326 48.4199 126.206 48.4199C127.086 48.4199 127.893 48.5738 128.632 48.8755C129.372 49.1771 130.007 49.5896 130.545 50.1067C131.083 50.6239 131.498 51.2334 131.798 51.929C132.097 52.6309 132.244 53.3757 132.244 54.1761V54.2068C132.244 55.0072 132.091 55.7583 131.785 56.4539ZM129.622 54.2068C129.622 53.7267 129.537 53.2711 129.372 52.8463C129.207 52.4215 128.962 52.046 128.657 51.7259C128.345 51.4057 127.978 51.1533 127.557 50.9625C127.135 50.7778 126.671 50.6854 126.176 50.6854C125.681 50.6854 125.204 50.7778 124.782 50.9563C124.367 51.1348 124.006 51.3872 123.707 51.7074C123.408 52.0275 123.175 52.3969 123.004 52.8217C122.833 53.2465 122.754 53.6959 122.754 54.1761V54.2068C122.754 54.687 122.839 55.1426 123.004 55.5674C123.169 55.9922 123.414 56.3678 123.719 56.6879C124.031 57.008 124.391 57.2604 124.813 57.4451C125.229 57.6298 125.693 57.7283 126.206 57.7283C126.72 57.7283 127.166 57.636 127.587 57.4574C128.009 57.2789 128.37 57.0265 128.669 56.7063C128.968 56.3862 129.201 56.0168 129.366 55.592C129.531 55.1672 129.616 54.7179 129.616 54.2377V54.2068H129.622Z" fill="var(--fill-0, white)"/>
<path id="Vector_19" d="M142.614 59.809V48.6045H151.194V50.7961H145.089V53.0678H150.46V55.2595H145.089V57.6112H151.273V59.8029H142.614V59.809Z" fill="var(--fill-0, white)"/>
<path id="Vector_20" d="M169.593 57.9746C169.385 58.4055 169.104 58.7687 168.738 59.0642C168.371 59.3597 167.931 59.5814 167.424 59.7353C166.917 59.8892 166.354 59.9692 165.731 59.9692C164.863 59.9692 164.014 59.8215 163.177 59.5321C162.34 59.2366 161.582 58.7872 160.898 58.1777L162.376 56.4355C162.896 56.8541 163.433 57.1804 163.977 57.4267C164.527 57.6729 165.126 57.796 165.774 57.796C166.293 57.796 166.697 57.7037 166.99 57.5128C167.277 57.3281 167.424 57.0696 167.424 56.7372V56.7063C167.424 56.5463 167.393 56.4047 167.332 56.2816C167.271 56.1584 167.155 56.0415 166.99 55.9368C166.819 55.8321 166.587 55.7214 166.287 55.6167C165.988 55.512 165.597 55.3951 165.12 55.2781C164.546 55.1365 164.02 54.9826 163.55 54.8164C163.079 54.644 162.682 54.4347 162.358 54.1823C162.028 53.9298 161.777 53.622 161.6 53.2465C161.423 52.8709 161.331 52.4092 161.331 51.8551V51.8244C161.331 51.3134 161.429 50.8517 161.625 50.4392C161.82 50.0267 162.089 49.6758 162.444 49.3741C162.792 49.0786 163.214 48.8447 163.696 48.6846C164.185 48.5246 164.717 48.4445 165.303 48.4445C166.141 48.4445 166.904 48.5677 167.607 48.8139C168.31 49.0602 168.952 49.4111 169.538 49.8728L168.237 51.732C167.729 51.3934 167.228 51.1226 166.739 50.9256C166.251 50.7285 165.762 50.63 165.273 50.63C164.784 50.63 164.417 50.7224 164.173 50.9132C163.928 51.0979 163.806 51.3319 163.806 51.6089V51.6397C163.806 51.8182 163.843 51.9783 163.91 52.1137C163.977 52.2492 164.112 52.3661 164.295 52.4708C164.478 52.5754 164.735 52.6801 165.053 52.7725C165.377 52.871 165.78 52.9818 166.269 53.1111C166.843 53.2588 167.363 53.4312 167.809 53.6159C168.261 53.8006 168.64 54.0283 168.952 54.2869C169.263 54.5455 169.495 54.8533 169.654 55.2104C169.813 55.5613 169.893 55.986 169.893 56.4724V56.5032C169.893 57.0573 169.789 57.5498 169.587 57.9869L169.593 57.9746Z" fill="var(--fill-0, white)"/>
<path id="Vector_21" d="M70.1643 53.7662H0.0777554V54.9351H70.1643V53.7662Z" fill="var(--fill-0, white)"/>
<path id="Vector_22" d="M252 53.7662H180.745V54.9351H252V53.7662Z" fill="var(--fill-0, white)"/>
</g>
</svg>
